M48
;DRILL file {KiCad (2018-02-05 revision 1f48759)-master} date Tuesday, 29 May 2018 at 17:09:17
;FORMAT={2:4/ absolute / inch / suppress leading zeros}
FMAT,2
INCH,TZ
T1C0.0130
T2C0.0130
T3C0.0138
T4C0.0150
T5C0.0160
T6C0.0200
T7C0.0250
T8C0.0276
T9C0.0280
T10C0.0354
T11C0.0390
T12C0.0400
T13C0.0512
T14C0.1260
%
G90
G05
M72
T1
X66547Y-44371
X66744Y-44075
T2
X27744Y-61755
X27744Y-62605
X28644Y-61705
X28874Y-57845
X28950Y-63380
X29035Y-61890
X29092Y-56731
X29112Y-56231
X29754Y-59245
X30050Y-66064
X30302Y-54621
X30352Y-55881
X30464Y-61305
X30784Y-61455
X31434Y-60765
X31660Y-57780
X31752Y-53831
X31752Y-54281
X31752Y-54731
X31972Y-66158
X33352Y-54681
X33352Y-55931
X34152Y-63008
X34750Y-61560
X34838Y-56789
X36128Y-56939
X36150Y-49756
X36650Y-49756
X37380Y-49756
X37805Y-59962
X37882Y-49758
X38240Y-61360
X38255Y-60062
X38335Y-61712
X38343Y-65364
X38700Y-60440
X38765Y-42911
X39400Y-47546
X39900Y-47546
X40335Y-46101
X40630Y-47546
X40960Y-56980
X41100Y-61650
X41105Y-56465
X41130Y-47546
X41175Y-55555
X41240Y-57330
X41607Y-66367
X42330Y-53880
X42330Y-54270
X42600Y-61280
X42820Y-53040
X44025Y-54405
X50935Y-65394
X50942Y-65738
X53662Y-47208
X54292Y-63508
X54402Y-58688
X54582Y-58408
X54652Y-61393
X54887Y-61668
X55642Y-57088
X55982Y-57118
X56352Y-54078
X56539Y-50409
X56546Y-59976
X56765Y-53336
X57092Y-56008
X57122Y-45578
X57122Y-53708
X57122Y-55608
X57132Y-52638
X57252Y-51918
X57282Y-60598
X57322Y-53118
X57442Y-59168
X57562Y-52178
X57662Y-53078
X57742Y-51228
X58002Y-59768
X58186Y-49143
X58252Y-48428
X58252Y-59998
X58502Y-55668
X58522Y-48108
X58742Y-55958
X59070Y-51484
X59572Y-52538
X59772Y-62808
X60132Y-56858
X60182Y-57578
X60512Y-57228
X60542Y-60438
X60712Y-60728
X60774Y-60132
X60792Y-55738
X60802Y-56108
X60812Y-55038
X60842Y-55408
X60906Y-52322
X61882Y-57258
X62192Y-55788
X62606Y-55557
X63044Y-55288
X63150Y-55635
X64994Y-44325
X65444Y-43625
X68224Y-45075
X68904Y-42575
X66547Y-43780
X66941Y-43780
X66941Y-44371
T3
X36032Y-61679
X36032Y-62112
X36032Y-62545
X36465Y-61679
X36465Y-62112
X36465Y-62545
X36898Y-61679
X36898Y-62112
X36898Y-62545
X49925Y-63884
X49925Y-64404
X50185Y-64144
X50445Y-63884
X50445Y-64404
T4
X24331Y-67323
X24587Y-66713
X24587Y-67933
X25197Y-66457
X25197Y-68189
X25807Y-66713
X25807Y-67933
X26063Y-67323
X69087Y-62402
X69087Y-62795
X69087Y-63189
X69087Y-65157
X69087Y-65551
X69087Y-65945
X69480Y-62402
X69480Y-62795
X69480Y-63189
X69480Y-65157
X69480Y-65551
X69480Y-65945
X69874Y-62402
X69874Y-62795
X69874Y-63189
X69874Y-65157
X69874Y-65551
X69874Y-65945
X24614Y-61614
X24614Y-62008
X24614Y-62402
X24614Y-64370
X24614Y-64764
X24614Y-65157
X25008Y-61614
X25008Y-62008
X25008Y-62402
X25008Y-64370
X25008Y-64764
X25008Y-65157
X25402Y-61614
X25402Y-62008
X25402Y-62402
X25402Y-64370
X25402Y-64764
X25402Y-65157
X68425Y-40945
X68681Y-40335
X68681Y-41555
X69291Y-40079
X69291Y-41811
X69902Y-40335
X69902Y-41555
X70157Y-40945
X69087Y-55315
X69087Y-55709
X69087Y-56102
X69087Y-58071
X69087Y-58465
X69087Y-58858
X69480Y-55315
X69480Y-55709
X69480Y-56102
X69480Y-58071
X69480Y-58465
X69480Y-58858
X69874Y-55315
X69874Y-55709
X69874Y-56102
X69874Y-58071
X69874Y-58465
X69874Y-58858
X24331Y-40945
X24587Y-40335
X24587Y-41555
X25197Y-40079
X25197Y-41811
X25807Y-40335
X25807Y-41555
X26063Y-40945
X42184Y-55274
X42184Y-55865
X42184Y-56456
X42775Y-55274
X42775Y-55865
X42775Y-56456
X43366Y-55274
X43366Y-55865
X43366Y-56456
X39860Y-43627
X39860Y-44276
X39860Y-44926
X40510Y-43627
X40510Y-44276
X40510Y-44926
X41160Y-43627
X41160Y-44276
X41160Y-44926
X50709Y-56693
X50965Y-56083
X50965Y-57303
X51575Y-55827
X51575Y-57559
X52185Y-56083
X52185Y-57303
X52441Y-56693
X68425Y-67323
X68681Y-66713
X68681Y-67933
X69291Y-66457
X69291Y-68189
X69902Y-66713
X69902Y-67933
X70157Y-67323
X48740Y-40945
X48996Y-40335
X48996Y-41555
X49606Y-40079
X49606Y-41811
X50217Y-40335
X50217Y-41555
X50472Y-40945
T5
X25032Y-46368
X36355Y-58922
X36355Y-59452
X36755Y-59452
X37155Y-59452
X37452Y-59098
X37805Y-58812
X37960Y-47176
X38255Y-58962
X38360Y-47176
X38705Y-59262
X38760Y-47176
X39020Y-64630
X39160Y-47176
X39212Y-42148
X39268Y-42578
X39560Y-46076
X39560Y-47176
X39892Y-63158
X40052Y-64648
X40400Y-47176
X40760Y-47136
X40952Y-64558
X41055Y-55195
X41532Y-47228
X41922Y-63588
X41992Y-47288
X42690Y-64830
X44375Y-55305
X44435Y-55845
X44602Y-56588
X44725Y-55475
X45460Y-53640
X46100Y-43930
X46192Y-47448
X46232Y-48048
X47360Y-68120
X47462Y-47868
X48042Y-46878
X48042Y-48028
X48052Y-47648
X48062Y-47268
X48542Y-62188
X48902Y-63418
X49232Y-49848
X49642Y-58258
X49792Y-58908
X49942Y-59438
X50062Y-58648
X50082Y-44088
X50102Y-43698
X50202Y-58998
X50602Y-44328
X50692Y-43748
X50832Y-53108
X50892Y-44068
X50912Y-51178
X50972Y-53458
X51082Y-44398
X51202Y-53988
X51792Y-59088
X52052Y-51268
X52442Y-59538
X52792Y-62628
X53072Y-59548
X53082Y-64048
X53223Y-51069
X53292Y-64428
X53622Y-63928
X53662Y-63488
X54302Y-50778
X54422Y-50198
X54990Y-56410
X55920Y-55320
X56182Y-50338
X56212Y-60358
X56332Y-58068
X56410Y-55370
X56722Y-45148
X56912Y-57288
X57022Y-58718
X57282Y-48168
X57712Y-48158
X58522Y-54918
X59062Y-52108
X59222Y-52468
X59692Y-53098
X60762Y-56748
X60800Y-58460
X61080Y-45976
X61082Y-46388
X61170Y-62700
X61492Y-47878
X61632Y-61358
X61782Y-61008
X61872Y-51258
X62042Y-53228
X62082Y-46858
X62172Y-61048
X62342Y-45988
X62342Y-48668
X62358Y-58647
X62772Y-49368
X62832Y-60688
X63202Y-48768
X63572Y-46988
X63701Y-48583
X63900Y-61910
X64170Y-62210
X64472Y-59808
X64900Y-54850
X65082Y-50818
X65682Y-59148
X65990Y-58910
X66142Y-52108
X66280Y-61980
X66650Y-58060
X67934Y-43505
X68044Y-44675
X68894Y-43075
X68894Y-45575
X69250Y-42336
T6
X28774Y-64385
X29234Y-63705
X35715Y-64792
X36765Y-64792
X37335Y-44801
X40015Y-55375
X40810Y-46076
X42855Y-59445
X42995Y-59885
X43275Y-53055
X43385Y-54105
X45575Y-55065
X45585Y-55845
X50985Y-66144
X51885Y-65594
X62591Y-56646
X63348Y-52495
T7
X24622Y-46738
X24722Y-51898
X24722Y-53698
X24722Y-55488
X24722Y-57288
X24722Y-59088
X25122Y-52898
X25822Y-64098
X26673Y-53937
X26673Y-56299
X26673Y-58661
X26673Y-61024
X26673Y-65748
X26722Y-43088
X26722Y-48188
X27165Y-62598
X27244Y-60205
X27284Y-60995
X27284Y-61825
X27342Y-58268
X27594Y-59405
X27704Y-58805
X27894Y-60875
X27932Y-56721
X28254Y-62705
X28312Y-55851
X28346Y-52362
X28346Y-67323
X28702Y-65008
X28982Y-66198
X29324Y-59245
X29344Y-58605
X29480Y-55000
X29494Y-61135
X29600Y-66064
X29650Y-64200
X29870Y-58620
X30034Y-60675
X30250Y-59450
X30604Y-62075
X30650Y-58230
X30702Y-56641
X30709Y-52362
X30709Y-67323
X31002Y-55281
X31130Y-66420
X31250Y-65514
X31652Y-56781
X31802Y-47498
X32152Y-56781
X32194Y-62335
X32244Y-60405
X32390Y-58220
X32602Y-46718
X32702Y-55281
X32892Y-41898
X32952Y-53931
X32952Y-56691
X33071Y-52362
X33071Y-67323
X33232Y-40778
X33802Y-43278
X33912Y-40428
X34048Y-56489
X34312Y-47898
X34615Y-59812
X34920Y-62020
X34965Y-60812
X35065Y-64192
X35388Y-57589
X35433Y-52362
X35433Y-67323
X35865Y-63692
X36265Y-64792
X36405Y-60462
X36488Y-55899
X36655Y-63712
X37008Y-52854
X37185Y-65412
X37252Y-44233
X37485Y-43451
X37795Y-67323
X37827Y-45788
X38055Y-60962
X38427Y-44258
X38475Y-64062
X38515Y-45171
X38635Y-42401
X38682Y-43368
X38965Y-65962
X38976Y-52953
X39050Y-64200
X39225Y-41661
X39255Y-61412
X39260Y-63210
X39540Y-60960
X39705Y-63712
X39945Y-42451
X40157Y-67323
X40160Y-60900
X40365Y-54765
X40365Y-56915
X40390Y-63240
X40412Y-41668
X41009Y-65769
X41043Y-52854
X41529Y-64429
X41560Y-46086
X41725Y-57475
X41725Y-58665
X41785Y-59665
X41874Y-62269
X42065Y-45711
X42150Y-60370
X42290Y-46886
X42362Y-44458
X42520Y-52362
X42520Y-67323
X42769Y-66369
X42925Y-57485
X42925Y-58665
X43161Y-62076
X43505Y-44071
X43505Y-44551
X43775Y-53055
X44065Y-59665
X44094Y-50984
X44160Y-62230
X44375Y-56965
X44475Y-53455
X44775Y-57765
X44882Y-52362
X44882Y-67323
X44900Y-45670
X45700Y-46070
X45875Y-55465
X46063Y-57087
X46100Y-43450
X46442Y-50278
X46500Y-42470
X46555Y-53937
X46555Y-58661
X46555Y-61024
X46555Y-63386
X46555Y-65748
X47047Y-55512
X47052Y-64338
X47070Y-63510
X47082Y-66108
X47142Y-64828
X47300Y-49870
X47360Y-44850
X47452Y-64058
X47669Y-66094
X47742Y-62598
X48085Y-65354
X48240Y-66890
X48330Y-43560
X48652Y-64148
X48700Y-45410
X48702Y-48588
X48722Y-56898
X48952Y-62328
X48980Y-64850
X49192Y-50778
X49485Y-65444
X49710Y-48580
X49735Y-62744
X50182Y-60698
X50672Y-44898
X50770Y-66890
X50910Y-63000
X50982Y-59438
X51032Y-48608
X51292Y-62178
X51432Y-60738
X51432Y-63468
X51500Y-42170
X51732Y-53938
X51802Y-67238
X51822Y-62628
X51850Y-41360
X52322Y-61878
X52382Y-65608
X52532Y-57788
X52612Y-63108
X52918Y-53945
X52961Y-56731
X53052Y-43363
X53392Y-56968
X53731Y-51434
X53750Y-46270
X53800Y-46770
X53950Y-43970
X54412Y-48698
X54412Y-49208
X54412Y-49708
X54580Y-52283
X54862Y-60058
X54932Y-61098
X55172Y-43868
X55711Y-59212
X56112Y-61568
X56242Y-48924
X56672Y-61318
X57168Y-49737
X57514Y-61016
X58165Y-50550
X58964Y-48677
X59636Y-49136
X59742Y-61207
X59880Y-63220
X60131Y-60874
X60732Y-51929
X60979Y-61723
X61110Y-63210
X61297Y-52495
X61510Y-50656
X62358Y-49808
X62623Y-51846
X62712Y-50162
X62942Y-58108
X63207Y-59495
X63355Y-54496
X63461Y-50968
X63737Y-57268
X63744Y-44075
X63772Y-58930
X64303Y-56702
X64367Y-53588
X64586Y-58116
X64790Y-61240
X65072Y-47368
X65151Y-52955
X65151Y-57551
X65328Y-51222
X65363Y-53591
X65399Y-52071
X65594Y-44075
X66112Y-49163
X66302Y-50318
X66372Y-48048
X67144Y-41425
X67144Y-46725
X67594Y-42575
X67594Y-45575
X67776Y-49163
X68122Y-65718
X68694Y-45075
X68898Y-46969
X69324Y-43749
X69372Y-59848
T8
X69201Y-47839
X69201Y-49799
T9
X59710Y-45066
X59710Y-45566
X59710Y-46066
X59710Y-46566
X59710Y-47066
X60210Y-45066
X60210Y-45566
X60210Y-46066
X60210Y-46566
X60210Y-47066
T10
X70394Y-47195
X70394Y-50443
T11
X24685Y-42972
X24685Y-44744
X24685Y-48091
X24685Y-49862
T12
X54122Y-41398
X54122Y-42398
X55122Y-41398
X55122Y-42398
X56122Y-41398
X56122Y-42398
X57122Y-41398
X57122Y-42398
X58122Y-41398
X58122Y-42398
X59122Y-41398
X59122Y-42398
X60122Y-41398
X60122Y-42398
X61122Y-41398
X61122Y-42398
X62122Y-41398
X62122Y-42398
X63122Y-41398
X63122Y-42398
X35122Y-50398
X35122Y-51398
X36122Y-50398
X36122Y-51398
X37122Y-50398
X37122Y-51398
X38122Y-50398
X38122Y-51398
X39122Y-50398
X39122Y-51398
X40122Y-50398
X40122Y-51398
X41122Y-50398
X41122Y-51398
X42122Y-50398
X42122Y-51398
X34122Y-41398
X34122Y-42398
X35122Y-41398
X35122Y-42398
X36122Y-41398
X36122Y-42398
X48122Y-51398
X48122Y-52398
X48122Y-53398
X48122Y-54398
X48122Y-55398
X48122Y-56398
X48122Y-57398
X48122Y-58398
X48122Y-59398
X48122Y-60398
X48122Y-61398
X49122Y-51398
X49122Y-52398
X49122Y-53398
X49122Y-54398
X49122Y-55398
X49122Y-56398
X49122Y-57398
X49122Y-58398
X49122Y-59398
X49122Y-60398
X49122Y-61398
X54122Y-62398
X55122Y-62398
X56122Y-62398
X57122Y-62398
X58122Y-62398
X59122Y-62398
X57122Y-46398
X57122Y-47398
X70122Y-51398
X70122Y-52398
X57122Y-44398
X58122Y-44398
X33122Y-49398
X33122Y-50398
X51122Y-52398
X52122Y-52398
X62122Y-44398
X63122Y-44398
X54122Y-64398
X54122Y-65398
X55122Y-64398
X55122Y-65398
X56122Y-64398
X56122Y-65398
X57122Y-64398
X57122Y-65398
X58122Y-64398
X58122Y-65398
X59122Y-64398
X59122Y-65398
X60122Y-64398
X60122Y-65398
X61122Y-64398
X61122Y-65398
X62122Y-64398
X62122Y-65398
X63122Y-64398
X63122Y-65398
X64122Y-64398
X64122Y-65398
X65122Y-64398
X65122Y-65398
X66122Y-64398
X66122Y-65398
X67122Y-51398
X67122Y-52398
X67122Y-53398
X67122Y-54398
X67122Y-55398
X67122Y-56398
X67122Y-57398
X67122Y-58398
X67122Y-59398
X67122Y-60398
X67122Y-61398
X68122Y-51398
X68122Y-52398
X68122Y-53398
X68122Y-54398
X68122Y-55398
X68122Y-56398
X68122Y-57398
X68122Y-58398
X68122Y-59398
X68122Y-60398
X68122Y-61398
T13
X25665Y-42478
X25665Y-45238
X25665Y-47596
X25665Y-50356
T14
X69291Y-40945
X25197Y-40945
X51575Y-56693
X69291Y-67323
X49606Y-40945
X25197Y-67323
T0
M30
