M48
;DRILL file {KiCad (2018-02-05 revision 1f48759)-master} date Tuesday, 29 May 2018 at 17:06:52
;FORMAT={3:3/ absolute / metric / suppress leading zeros}
FMAT,2
METRIC,TZ
T1C0.330
T2C0.330
T3C0.350
T4C0.381
T5C0.406
T6C0.508
T7C0.635
T8C0.700
T9C0.711
T10C0.900
T11C0.990
T12C1.016
T13C1.300
T14C3.200
%
G90
G05
M71
T1
X169030Y-112701
X169530Y-111951
T2
X70471Y-156857
X70471Y-159016
X72757Y-156730
X73341Y-146926
X73533Y-160985
X73750Y-157200
X73893Y-144097
X73944Y-142827
X75576Y-150482
X76328Y-167804
X76967Y-138738
X77094Y-141938
X77380Y-155714
X78193Y-156095
X79844Y-154342
X80416Y-146761
X80650Y-136731
X80650Y-137874
X80650Y-139017
X81209Y-168040
X84714Y-138890
X84714Y-142065
X86746Y-160039
X88265Y-156362
X88489Y-144244
X91765Y-144625
X91821Y-126381
X93091Y-126381
X94945Y-126381
X96024Y-152303
X96220Y-126384
X97130Y-155854
X97167Y-152557
X97370Y-156748
X97391Y-166024
X98298Y-153518
X98463Y-108995
X100076Y-120768
X101346Y-120768
X102451Y-117097
X103200Y-120768
X104038Y-144729
X104394Y-156591
X104407Y-143421
X104470Y-120768
X104584Y-141110
X104750Y-145618
X105682Y-168571
X107518Y-136855
X107518Y-137846
X108204Y-155651
X108763Y-134722
X111823Y-138189
X129374Y-166101
X129393Y-166974
X136302Y-119907
X137902Y-161309
X138181Y-149067
X138638Y-148355
X138816Y-155937
X139413Y-156636
X141331Y-145003
X142194Y-145079
X143134Y-137357
X143608Y-128039
X143626Y-152339
X144183Y-135475
X145014Y-142259
X145090Y-115767
X145090Y-136417
X145090Y-141243
X145115Y-133700
X145420Y-131871
X145496Y-153918
X145598Y-134919
X145903Y-150286
X146208Y-132531
X146462Y-134817
X146665Y-130118
X147325Y-151810
X147793Y-124824
X147960Y-123006
X147960Y-152394
X148595Y-141396
X148646Y-122193
X149205Y-142132
X150038Y-130769
X151313Y-133446
X151821Y-159531
X152735Y-144418
X152862Y-146247
X153701Y-145358
X153777Y-153512
X154209Y-154248
X154367Y-152735
X154412Y-141574
X154437Y-142513
X154463Y-139796
X154539Y-140735
X154701Y-132897
X157180Y-145434
X157968Y-141701
X159018Y-141114
X160132Y-140432
X160401Y-141312
X165085Y-112586
X166228Y-110808
X173289Y-114491
X175016Y-108141
X169030Y-111201
X170030Y-111201
X170030Y-112701
T3
X91520Y-156664
X91520Y-157764
X91520Y-158864
X92620Y-156664
X92620Y-157764
X92620Y-158864
X93720Y-156664
X93720Y-157764
X93720Y-158864
X126809Y-162266
X126809Y-163586
X127469Y-162926
X128129Y-162266
X128129Y-163586
T4
X61800Y-171000
X62450Y-169450
X62450Y-172550
X64000Y-168800
X64000Y-173200
X65550Y-169450
X65550Y-172550
X66200Y-171000
X175480Y-158500
X175480Y-159500
X175480Y-160500
X175480Y-165500
X175480Y-166500
X175480Y-167500
X176480Y-158500
X176480Y-159500
X176480Y-160500
X176480Y-165500
X176480Y-166500
X176480Y-167500
X177480Y-158500
X177480Y-159500
X177480Y-160500
X177480Y-165500
X177480Y-166500
X177480Y-167500
X62520Y-156500
X62520Y-157500
X62520Y-158500
X62520Y-163500
X62520Y-164500
X62520Y-165500
X63520Y-156500
X63520Y-157500
X63520Y-158500
X63520Y-163500
X63520Y-164500
X63520Y-165500
X64520Y-156500
X64520Y-157500
X64520Y-158500
X64520Y-163500
X64520Y-164500
X64520Y-165500
X173800Y-104000
X174450Y-102450
X174450Y-105550
X176000Y-101800
X176000Y-106200
X177550Y-102450
X177550Y-105550
X178200Y-104000
X175480Y-140500
X175480Y-141500
X175480Y-142500
X175480Y-147500
X175480Y-148500
X175480Y-149500
X176480Y-140500
X176480Y-141500
X176480Y-142500
X176480Y-147500
X176480Y-148500
X176480Y-149500
X177480Y-140500
X177480Y-141500
X177480Y-142500
X177480Y-147500
X177480Y-148500
X177480Y-149500
X61800Y-104000
X62450Y-102450
X62450Y-105550
X64000Y-101800
X64000Y-106200
X65550Y-102450
X65550Y-105550
X66200Y-104000
X107148Y-140397
X107148Y-141897
X107148Y-143397
X108648Y-140397
X108648Y-141897
X108648Y-143397
X110148Y-140397
X110148Y-141897
X110148Y-143397
X101245Y-110812
X101245Y-112462
X101245Y-114112
X102895Y-110812
X102895Y-112462
X102895Y-114112
X104545Y-110812
X104545Y-112462
X104545Y-114112
X128800Y-144000
X129450Y-142450
X129450Y-145550
X131000Y-141800
X131000Y-146200
X132550Y-142450
X132550Y-145550
X133200Y-144000
X173800Y-171000
X174450Y-169450
X174450Y-172550
X176000Y-168800
X176000Y-173200
X177550Y-169450
X177550Y-172550
X178200Y-171000
X123800Y-104000
X124450Y-102450
X124450Y-105550
X126000Y-101800
X126000Y-106200
X127550Y-102450
X127550Y-105550
X128200Y-104000
T5
X63581Y-117774
X92341Y-149661
X92341Y-151007
X93357Y-151007
X94373Y-151007
X95128Y-150108
X96024Y-149382
X96418Y-119828
X97167Y-149763
X97434Y-119828
X98310Y-150525
X98450Y-119828
X99111Y-164160
X99466Y-119828
X99599Y-107055
X99741Y-108147
X100482Y-117034
X100482Y-119828
X101326Y-160420
X101732Y-164205
X102616Y-119828
X103530Y-119726
X104018Y-163976
X104280Y-140195
X105491Y-119958
X106482Y-161513
X106660Y-120111
X108433Y-164668
X112713Y-140475
X112865Y-141846
X113289Y-143733
X113602Y-140907
X115468Y-136246
X117094Y-111582
X117328Y-120517
X117429Y-122041
X120294Y-173025
X120554Y-121584
X122027Y-119069
X122027Y-121990
X122052Y-121025
X122078Y-120060
X123297Y-157957
X124211Y-161081
X125049Y-126613
X126091Y-147974
X126472Y-149625
X126853Y-150972
X127158Y-148965
X127208Y-111983
X127259Y-110992
X127513Y-149854
X128529Y-112592
X128758Y-111119
X129113Y-134893
X129266Y-111932
X129317Y-129991
X129469Y-135782
X129748Y-112770
X130053Y-137129
X131552Y-150083
X132212Y-130220
X133203Y-151226
X134092Y-159074
X134803Y-151251
X134828Y-162681
X135187Y-129714
X135362Y-163646
X136200Y-162376
X136302Y-161259
X137927Y-128975
X138232Y-127502
X139675Y-143281
X142037Y-140513
X142702Y-127858
X142779Y-153308
X143083Y-147492
X143281Y-140640
X144074Y-114675
X144557Y-145511
X144836Y-149143
X145496Y-122346
X146589Y-122320
X148646Y-139491
X150018Y-132353
X150424Y-133268
X151618Y-134868
X154336Y-144139
X154432Y-148488
X155142Y-116778
X155148Y-117825
X155372Y-159258
X156190Y-121609
X156545Y-155848
X156926Y-154959
X157155Y-130194
X157587Y-135198
X157688Y-119018
X157917Y-155061
X158349Y-116809
X158349Y-123616
X158390Y-148963
X159441Y-125394
X159593Y-154147
X160533Y-123870
X161473Y-119349
X161800Y-123400
X162306Y-157251
X162992Y-158013
X163759Y-151911
X164846Y-139319
X165308Y-129077
X166832Y-150235
X167615Y-149631
X168001Y-132353
X168351Y-157429
X169291Y-147472
X172553Y-110503
X172832Y-113475
X174991Y-109411
X174991Y-115761
X175895Y-107533
T6
X73087Y-163537
X74256Y-161810
X90715Y-164571
X93382Y-164571
X94831Y-113795
X101638Y-140653
X103657Y-117034
X108852Y-150990
X109207Y-152108
X109918Y-134760
X110198Y-137427
X115761Y-139865
X115786Y-141846
X129501Y-168006
X131787Y-166609
X158982Y-143880
X160904Y-133337
T7
X62540Y-118714
X62794Y-131820
X62794Y-136392
X62794Y-140939
X62794Y-145511
X62794Y-150083
X63810Y-134360
X65588Y-162808
X67750Y-137000
X67750Y-143000
X67750Y-149000
X67750Y-155000
X67750Y-167000
X67874Y-109443
X67874Y-122397
X69000Y-159000
X69201Y-152920
X69303Y-154927
X69303Y-157035
X69449Y-148000
X70090Y-150888
X70369Y-149364
X70852Y-154622
X70947Y-144072
X71766Y-159270
X71912Y-141862
X72000Y-133000
X72000Y-171000
X72903Y-165119
X73614Y-168142
X74484Y-150482
X74535Y-148856
X74879Y-139700
X74916Y-155282
X75185Y-167804
X75311Y-163068
X75870Y-148895
X76288Y-154114
X76835Y-151003
X77735Y-157670
X77851Y-147904
X77983Y-143869
X78000Y-133000
X78000Y-171000
X78745Y-140414
X79070Y-168707
X79376Y-166407
X80396Y-144224
X80777Y-120644
X81666Y-144224
X81774Y-158330
X81901Y-153428
X82271Y-147879
X82809Y-118663
X83063Y-140414
X83546Y-106420
X83698Y-136985
X83698Y-143996
X84000Y-133000
X84000Y-171000
X84409Y-103575
X85857Y-109925
X86137Y-102686
X86482Y-143482
X87153Y-121660
X87921Y-151922
X88697Y-157531
X88810Y-154462
X89064Y-163047
X89886Y-146276
X90000Y-133000
X90000Y-171000
X91096Y-161777
X92112Y-164571
X92468Y-153573
X92680Y-141983
X93103Y-161828
X94000Y-134250
X94449Y-166146
X94620Y-112351
X95212Y-110366
X96000Y-171000
X96081Y-116301
X96659Y-154843
X97605Y-112414
X97726Y-162717
X97828Y-114735
X98133Y-107699
X98252Y-110154
X98970Y-167543
X99000Y-134500
X99187Y-163068
X99631Y-105820
X99707Y-155986
X99720Y-160553
X100432Y-154838
X100850Y-161828
X101460Y-107826
X102000Y-171000
X102006Y-154686
X102527Y-139103
X102527Y-144564
X102591Y-160630
X102647Y-105836
X104163Y-167052
X104250Y-134250
X105484Y-163649
X105562Y-117059
X105982Y-145987
X105982Y-149009
X106134Y-151549
X106360Y-158164
X106845Y-116107
X107061Y-153340
X107417Y-119091
X107600Y-112922
X108000Y-133000
X108000Y-171000
X108633Y-168576
X109030Y-146012
X109030Y-149009
X109628Y-157672
X110503Y-111941
X110503Y-113160
X111189Y-134760
X111925Y-151549
X112000Y-129500
X112166Y-158064
X112713Y-144691
X112967Y-135776
X113728Y-146723
X114000Y-133000
X114000Y-171000
X114046Y-116002
X116078Y-117018
X116523Y-140881
X117000Y-145000
X117094Y-110363
X117963Y-127705
X118110Y-107874
X118250Y-137000
X118250Y-149000
X118250Y-155000
X118250Y-161000
X118250Y-167000
X119500Y-141000
X119512Y-163418
X119558Y-161315
X119588Y-167913
X119741Y-164662
X120142Y-126670
X120294Y-113919
X120528Y-162706
X121080Y-167878
X121265Y-158998
X122135Y-165999
X122530Y-169901
X122758Y-110642
X123576Y-162935
X123698Y-115341
X123703Y-123413
X123754Y-144520
X124338Y-158312
X124409Y-164719
X124948Y-128975
X125691Y-166228
X126263Y-123393
X126326Y-159370
X127462Y-154172
X128707Y-114040
X128956Y-169901
X129311Y-160020
X129494Y-150972
X129621Y-123463
X130282Y-157931
X130637Y-154274
X130637Y-161208
X130810Y-107112
X131399Y-137002
X131577Y-170784
X131628Y-159074
X131699Y-105054
X132898Y-157169
X133050Y-166643
X133431Y-146781
X133635Y-160293
X134412Y-137019
X134520Y-144096
X134752Y-110141
X135616Y-144698
X136478Y-130643
X136525Y-117526
X136652Y-118796
X137033Y-111684
X138207Y-123692
X138207Y-124987
X138207Y-126257
X138633Y-132798
X139350Y-152546
X139527Y-155188
X140137Y-111424
X141507Y-150400
X142525Y-156382
X142854Y-124267
X143947Y-155747
X145207Y-126333
X146087Y-154980
X147739Y-128398
X149769Y-123639
X151475Y-124806
X151744Y-155465
X152095Y-160579
X152732Y-154620
X154259Y-131900
X154887Y-156776
X155219Y-160553
X155696Y-133337
X156234Y-128668
X158390Y-126512
X159061Y-131688
X159288Y-127410
X159873Y-147593
X160545Y-151118
X160922Y-138420
X161192Y-129458
X161892Y-145461
X161910Y-111951
X161982Y-149681
X163329Y-144024
X163492Y-136113
X164047Y-147616
X164567Y-155550
X165283Y-120314
X165484Y-134505
X165484Y-146179
X165933Y-130104
X166023Y-136121
X166113Y-132260
X166609Y-111951
X167925Y-124875
X168407Y-127807
X168585Y-122041
X170546Y-105220
X170546Y-118682
X171689Y-108141
X171689Y-115761
X172150Y-124875
X173030Y-166923
X174483Y-114491
X175000Y-119300
X176083Y-111122
X176205Y-152013
T8
X175770Y-121510
X175770Y-126490
T9
X151663Y-114467
X151663Y-115737
X151663Y-117007
X151663Y-118277
X151663Y-119547
X152933Y-114467
X152933Y-115737
X152933Y-117007
X152933Y-118277
X152933Y-119547
T10
X178800Y-119875
X178800Y-128125
T11
X62700Y-109150
X62700Y-113650
X62700Y-122150
X62700Y-126650
T12
X137470Y-105150
X137470Y-107690
X140010Y-105150
X140010Y-107690
X142550Y-105150
X142550Y-107690
X145090Y-105150
X145090Y-107690
X147630Y-105150
X147630Y-107690
X150170Y-105150
X150170Y-107690
X152710Y-105150
X152710Y-107690
X155250Y-105150
X155250Y-107690
X157790Y-105150
X157790Y-107690
X160330Y-105150
X160330Y-107690
X89210Y-128010
X89210Y-130550
X91750Y-128010
X91750Y-130550
X94290Y-128010
X94290Y-130550
X96830Y-128010
X96830Y-130550
X99370Y-128010
X99370Y-130550
X101910Y-128010
X101910Y-130550
X104450Y-128010
X104450Y-130550
X106990Y-128010
X106990Y-130550
X86670Y-105150
X86670Y-107690
X89210Y-105150
X89210Y-107690
X91750Y-105150
X91750Y-107690
X122230Y-130550
X122230Y-133090
X122230Y-135630
X122230Y-138170
X122230Y-140710
X122230Y-143250
X122230Y-145790
X122230Y-148330
X122230Y-150870
X122230Y-153410
X122230Y-155950
X124770Y-130550
X124770Y-133090
X124770Y-135630
X124770Y-138170
X124770Y-140710
X124770Y-143250
X124770Y-145790
X124770Y-148330
X124770Y-150870
X124770Y-153410
X124770Y-155950
X137470Y-158490
X140010Y-158490
X142550Y-158490
X145090Y-158490
X147630Y-158490
X150170Y-158490
X145090Y-117850
X145090Y-120390
X178110Y-130550
X178110Y-133090
X145090Y-112770
X147630Y-112770
X84130Y-125470
X84130Y-128010
X129850Y-133090
X132390Y-133090
X157790Y-112770
X160330Y-112770
X137470Y-163570
X137470Y-166110
X140010Y-163570
X140010Y-166110
X142550Y-163570
X142550Y-166110
X145090Y-163570
X145090Y-166110
X147630Y-163570
X147630Y-166110
X150170Y-163570
X150170Y-166110
X152710Y-163570
X152710Y-166110
X155250Y-163570
X155250Y-166110
X157790Y-163570
X157790Y-166110
X160330Y-163570
X160330Y-166110
X162870Y-163570
X162870Y-166110
X165410Y-163570
X165410Y-166110
X167950Y-163570
X167950Y-166110
X170490Y-130550
X170490Y-133090
X170490Y-135630
X170490Y-138170
X170490Y-140710
X170490Y-143250
X170490Y-145790
X170490Y-148330
X170490Y-150870
X170490Y-153410
X170490Y-155950
X173030Y-130550
X173030Y-133090
X173030Y-135630
X173030Y-138170
X173030Y-140710
X173030Y-143250
X173030Y-145790
X173030Y-148330
X173030Y-150870
X173030Y-153410
X173030Y-155950
T13
X65190Y-107895
X65190Y-114905
X65190Y-120895
X65190Y-127905
T14
X176000Y-104000
X64000Y-104000
X131000Y-144000
X176000Y-171000
X126000Y-104000
X64000Y-171000
T0
M30
