M48
;DRILL file {KiCad (2018-02-05 revision 1f48759)-master} date Tuesday, 29 May 2018 at 17:07:54
;FORMAT={3:3/ absolute / metric / suppress trailing zeros}
FMAT,2
METRIC,LZ
T1C0.330
T2C0.330
T3C0.350
T4C0.381
T5C0.406
T6C0.508
T7C0.635
T8C0.700
T9C0.711
T10C0.900
T11C0.990
T12C1.016
T13C1.300
T14C3.200
%
G90
G05
M71
T1
X16903Y-112701
X16953Y-111951
T2
X070471Y-156857
X070471Y-159016
X072757Y-15673
X073341Y-146926
X073533Y-160985
X07375Y-1572
X073893Y-144097
X073944Y-142827
X075576Y-150482
X076328Y-167804
X076967Y-138738
X077094Y-141938
X07738Y-155714
X078193Y-156095
X079844Y-154342
X080416Y-146761
X08065Y-136731
X08065Y-137874
X08065Y-139017
X081209Y-16804
X084714Y-13889
X084714Y-142065
X086746Y-160039
X088265Y-156362
X088489Y-144244
X091765Y-144625
X091821Y-126381
X093091Y-126381
X094945Y-126381
X096024Y-152303
X09622Y-126384
X09713Y-155854
X097167Y-152557
X09737Y-156748
X097391Y-166024
X098298Y-153518
X098463Y-108995
X100076Y-120768
X101346Y-120768
X102451Y-117097
X1032Y-120768
X104038Y-144729
X104394Y-156591
X104407Y-143421
X10447Y-120768
X104584Y-14111
X10475Y-145618
X105682Y-168571
X107518Y-136855
X107518Y-137846
X108204Y-155651
X108763Y-134722
X111823Y-138189
X129374Y-166101
X129393Y-166974
X136302Y-119907
X137902Y-161309
X138181Y-149067
X138638Y-148355
X138816Y-155937
X139413Y-156636
X141331Y-145003
X142194Y-145079
X143134Y-137357
X143608Y-128039
X143626Y-152339
X144183Y-135475
X145014Y-142259
X14509Y-115767
X14509Y-136417
X14509Y-141243
X145115Y-1337
X14542Y-131871
X145496Y-153918
X145598Y-134919
X145903Y-150286
X146208Y-132531
X146462Y-134817
X146665Y-130118
X147325Y-15181
X147793Y-124824
X14796Y-123006
X14796Y-152394
X148595Y-141396
X148646Y-122193
X149205Y-142132
X150038Y-130769
X151313Y-133446
X151821Y-159531
X152735Y-144418
X152862Y-146247
X153701Y-145358
X153777Y-153512
X154209Y-154248
X154367Y-152735
X154412Y-141574
X154437Y-142513
X154463Y-139796
X154539Y-140735
X154701Y-132897
X15718Y-145434
X157968Y-141701
X159018Y-141114
X160132Y-140432
X160401Y-141312
X165085Y-112586
X166228Y-110808
X173289Y-114491
X175016Y-108141
X16903Y-111201
X17003Y-111201
X17003Y-112701
T3
X09152Y-156664
X09152Y-157764
X09152Y-158864
X09262Y-156664
X09262Y-157764
X09262Y-158864
X09372Y-156664
X09372Y-157764
X09372Y-158864
X126809Y-162266
X126809Y-163586
X127469Y-162926
X128129Y-162266
X128129Y-163586
T4
X0618Y-171
X06245Y-16945
X06245Y-17255
X064Y-1688
X064Y-1732
X06555Y-16945
X06555Y-17255
X0662Y-171
X17548Y-1585
X17548Y-1595
X17548Y-1605
X17548Y-1655
X17548Y-1665
X17548Y-1675
X17648Y-1585
X17648Y-1595
X17648Y-1605
X17648Y-1655
X17648Y-1665
X17648Y-1675
X17748Y-1585
X17748Y-1595
X17748Y-1605
X17748Y-1655
X17748Y-1665
X17748Y-1675
X06252Y-1565
X06252Y-1575
X06252Y-1585
X06252Y-1635
X06252Y-1645
X06252Y-1655
X06352Y-1565
X06352Y-1575
X06352Y-1585
X06352Y-1635
X06352Y-1645
X06352Y-1655
X06452Y-1565
X06452Y-1575
X06452Y-1585
X06452Y-1635
X06452Y-1645
X06452Y-1655
X1738Y-104
X17445Y-10245
X17445Y-10555
X176Y-1018
X176Y-1062
X17755Y-10245
X17755Y-10555
X1782Y-104
X17548Y-1405
X17548Y-1415
X17548Y-1425
X17548Y-1475
X17548Y-1485
X17548Y-1495
X17648Y-1405
X17648Y-1415
X17648Y-1425
X17648Y-1475
X17648Y-1485
X17648Y-1495
X17748Y-1405
X17748Y-1415
X17748Y-1425
X17748Y-1475
X17748Y-1485
X17748Y-1495
X0618Y-104
X06245Y-10245
X06245Y-10555
X064Y-1018
X064Y-1062
X06555Y-10245
X06555Y-10555
X0662Y-104
X107148Y-140397
X107148Y-141897
X107148Y-143397
X108648Y-140397
X108648Y-141897
X108648Y-143397
X110148Y-140397
X110148Y-141897
X110148Y-143397
X101245Y-110812
X101245Y-112462
X101245Y-114112
X102895Y-110812
X102895Y-112462
X102895Y-114112
X104545Y-110812
X104545Y-112462
X104545Y-114112
X1288Y-144
X12945Y-14245
X12945Y-14555
X131Y-1418
X131Y-1462
X13255Y-14245
X13255Y-14555
X1332Y-144
X1738Y-171
X17445Y-16945
X17445Y-17255
X176Y-1688
X176Y-1732
X17755Y-16945
X17755Y-17255
X1782Y-171
X1238Y-104
X12445Y-10245
X12445Y-10555
X126Y-1018
X126Y-1062
X12755Y-10245
X12755Y-10555
X1282Y-104
T5
X063581Y-117774
X092341Y-149661
X092341Y-151007
X093357Y-151007
X094373Y-151007
X095128Y-150108
X096024Y-149382
X096418Y-119828
X097167Y-149763
X097434Y-119828
X09831Y-150525
X09845Y-119828
X099111Y-16416
X099466Y-119828
X099599Y-107055
X099741Y-108147
X100482Y-117034
X100482Y-119828
X101326Y-16042
X101732Y-164205
X102616Y-119828
X10353Y-119726
X104018Y-163976
X10428Y-140195
X105491Y-119958
X106482Y-161513
X10666Y-120111
X108433Y-164668
X112713Y-140475
X112865Y-141846
X113289Y-143733
X113602Y-140907
X115468Y-136246
X117094Y-111582
X117328Y-120517
X117429Y-122041
X120294Y-173025
X120554Y-121584
X122027Y-119069
X122027Y-12199
X122052Y-121025
X122078Y-12006
X123297Y-157957
X124211Y-161081
X125049Y-126613
X126091Y-147974
X126472Y-149625
X126853Y-150972
X127158Y-148965
X127208Y-111983
X127259Y-110992
X127513Y-149854
X128529Y-112592
X128758Y-111119
X129113Y-134893
X129266Y-111932
X129317Y-129991
X129469Y-135782
X129748Y-11277
X130053Y-137129
X131552Y-150083
X132212Y-13022
X133203Y-151226
X134092Y-159074
X134803Y-151251
X134828Y-162681
X135187Y-129714
X135362Y-163646
X1362Y-162376
X136302Y-161259
X137927Y-128975
X138232Y-127502
X139675Y-143281
X142037Y-140513
X142702Y-127858
X142779Y-153308
X143083Y-147492
X143281Y-14064
X144074Y-114675
X144557Y-145511
X144836Y-149143
X145496Y-122346
X146589Y-12232
X148646Y-139491
X150018Y-132353
X150424Y-133268
X151618Y-134868
X154336Y-144139
X154432Y-148488
X155142Y-116778
X155148Y-117825
X155372Y-159258
X15619Y-121609
X156545Y-155848
X156926Y-154959
X157155Y-130194
X157587Y-135198
X157688Y-119018
X157917Y-155061
X158349Y-116809
X158349Y-123616
X15839Y-148963
X159441Y-125394
X159593Y-154147
X160533Y-12387
X161473Y-119349
X1618Y-1234
X162306Y-157251
X162992Y-158013
X163759Y-151911
X164846Y-139319
X165308Y-129077
X166832Y-150235
X167615Y-149631
X168001Y-132353
X168351Y-157429
X169291Y-147472
X172553Y-110503
X172832Y-113475
X174991Y-109411
X174991Y-115761
X175895Y-107533
T6
X073087Y-163537
X074256Y-16181
X090715Y-164571
X093382Y-164571
X094831Y-113795
X101638Y-140653
X103657Y-117034
X108852Y-15099
X109207Y-152108
X109918Y-13476
X110198Y-137427
X115761Y-139865
X115786Y-141846
X129501Y-168006
X131787Y-166609
X158982Y-14388
X160904Y-133337
T7
X06254Y-118714
X062794Y-13182
X062794Y-136392
X062794Y-140939
X062794Y-145511
X062794Y-150083
X06381Y-13436
X065588Y-162808
X06775Y-137
X06775Y-143
X06775Y-149
X06775Y-155
X06775Y-167
X067874Y-109443
X067874Y-122397
X069Y-159
X069201Y-15292
X069303Y-154927
X069303Y-157035
X069449Y-148
X07009Y-150888
X070369Y-149364
X070852Y-154622
X070947Y-144072
X071766Y-15927
X071912Y-141862
X072Y-133
X072Y-171
X072903Y-165119
X073614Y-168142
X074484Y-150482
X074535Y-148856
X074879Y-1397
X074916Y-155282
X075185Y-167804
X075311Y-163068
X07587Y-148895
X076288Y-154114
X076835Y-151003
X077735Y-15767
X077851Y-147904
X077983Y-143869
X078Y-133
X078Y-171
X078745Y-140414
X07907Y-168707
X079376Y-166407
X080396Y-144224
X080777Y-120644
X081666Y-144224
X081774Y-15833
X081901Y-153428
X082271Y-147879
X082809Y-118663
X083063Y-140414
X083546Y-10642
X083698Y-136985
X083698Y-143996
X084Y-133
X084Y-171
X084409Y-103575
X085857Y-109925
X086137Y-102686
X086482Y-143482
X087153Y-12166
X087921Y-151922
X088697Y-157531
X08881Y-154462
X089064Y-163047
X089886Y-146276
X09Y-133
X09Y-171
X091096Y-161777
X092112Y-164571
X092468Y-153573
X09268Y-141983
X093103Y-161828
X094Y-13425
X094449Y-166146
X09462Y-112351
X095212Y-110366
X096Y-171
X096081Y-116301
X096659Y-154843
X097605Y-112414
X097726Y-162717
X097828Y-114735
X098133Y-107699
X098252Y-110154
X09897Y-167543
X099Y-1345
X099187Y-163068
X099631Y-10582
X099707Y-155986
X09972Y-160553
X100432Y-154838
X10085Y-161828
X10146Y-107826
X102Y-171
X102006Y-154686
X102527Y-139103
X102527Y-144564
X102591Y-16063
X102647Y-105836
X104163Y-167052
X10425Y-13425
X105484Y-163649
X105562Y-117059
X105982Y-145987
X105982Y-149009
X106134Y-151549
X10636Y-158164
X106845Y-116107
X107061Y-15334
X107417Y-119091
X1076Y-112922
X108Y-133
X108Y-171
X108633Y-168576
X10903Y-146012
X10903Y-149009
X109628Y-157672
X110503Y-111941
X110503Y-11316
X111189Y-13476
X111925Y-151549
X112Y-1295
X112166Y-158064
X112713Y-144691
X112967Y-135776
X113728Y-146723
X114Y-133
X114Y-171
X114046Y-116002
X116078Y-117018
X116523Y-140881
X117Y-145
X117094Y-110363
X117963Y-127705
X11811Y-107874
X11825Y-137
X11825Y-149
X11825Y-155
X11825Y-161
X11825Y-167
X1195Y-141
X119512Y-163418
X119558Y-161315
X119588Y-167913
X119741Y-164662
X120142Y-12667
X120294Y-113919
X120528Y-162706
X12108Y-167878
X121265Y-158998
X122135Y-165999
X12253Y-169901
X122758Y-110642
X123576Y-162935
X123698Y-115341
X123703Y-123413
X123754Y-14452
X124338Y-158312
X124409Y-164719
X124948Y-128975
X125691Y-166228
X126263Y-123393
X126326Y-15937
X127462Y-154172
X128707Y-11404
X128956Y-169901
X129311Y-16002
X129494Y-150972
X129621Y-123463
X130282Y-157931
X130637Y-154274
X130637Y-161208
X13081Y-107112
X131399Y-137002
X131577Y-170784
X131628Y-159074
X131699Y-105054
X132898Y-157169
X13305Y-166643
X133431Y-146781
X133635Y-160293
X134412Y-137019
X13452Y-144096
X134752Y-110141
X135616Y-144698
X136478Y-130643
X136525Y-117526
X136652Y-118796
X137033Y-111684
X138207Y-123692
X138207Y-124987
X138207Y-126257
X138633Y-132798
X13935Y-152546
X139527Y-155188
X140137Y-111424
X141507Y-1504
X142525Y-156382
X142854Y-124267
X143947Y-155747
X145207Y-126333
X146087Y-15498
X147739Y-128398
X149769Y-123639
X151475Y-124806
X151744Y-155465
X152095Y-160579
X152732Y-15462
X154259Y-1319
X154887Y-156776
X155219Y-160553
X155696Y-133337
X156234Y-128668
X15839Y-126512
X159061Y-131688
X159288Y-12741
X159873Y-147593
X160545Y-151118
X160922Y-13842
X161192Y-129458
X161892Y-145461
X16191Y-111951
X161982Y-149681
X163329Y-144024
X163492Y-136113
X164047Y-147616
X164567Y-15555
X165283Y-120314
X165484Y-134505
X165484Y-146179
X165933Y-130104
X166023Y-136121
X166113Y-13226
X166609Y-111951
X167925Y-124875
X168407Y-127807
X168585Y-122041
X170546Y-10522
X170546Y-118682
X171689Y-108141
X171689Y-115761
X17215Y-124875
X17303Y-166923
X174483Y-114491
X175Y-1193
X176083Y-111122
X176205Y-152013
T8
X17577Y-12151
X17577Y-12649
T9
X151663Y-114467
X151663Y-115737
X151663Y-117007
X151663Y-118277
X151663Y-119547
X152933Y-114467
X152933Y-115737
X152933Y-117007
X152933Y-118277
X152933Y-119547
T10
X1788Y-119875
X1788Y-128125
T11
X0627Y-10915
X0627Y-11365
X0627Y-12215
X0627Y-12665
T12
X13747Y-10515
X13747Y-10769
X14001Y-10515
X14001Y-10769
X14255Y-10515
X14255Y-10769
X14509Y-10515
X14509Y-10769
X14763Y-10515
X14763Y-10769
X15017Y-10515
X15017Y-10769
X15271Y-10515
X15271Y-10769
X15525Y-10515
X15525Y-10769
X15779Y-10515
X15779Y-10769
X16033Y-10515
X16033Y-10769
X08921Y-12801
X08921Y-13055
X09175Y-12801
X09175Y-13055
X09429Y-12801
X09429Y-13055
X09683Y-12801
X09683Y-13055
X09937Y-12801
X09937Y-13055
X10191Y-12801
X10191Y-13055
X10445Y-12801
X10445Y-13055
X10699Y-12801
X10699Y-13055
X08667Y-10515
X08667Y-10769
X08921Y-10515
X08921Y-10769
X09175Y-10515
X09175Y-10769
X12223Y-13055
X12223Y-13309
X12223Y-13563
X12223Y-13817
X12223Y-14071
X12223Y-14325
X12223Y-14579
X12223Y-14833
X12223Y-15087
X12223Y-15341
X12223Y-15595
X12477Y-13055
X12477Y-13309
X12477Y-13563
X12477Y-13817
X12477Y-14071
X12477Y-14325
X12477Y-14579
X12477Y-14833
X12477Y-15087
X12477Y-15341
X12477Y-15595
X13747Y-15849
X14001Y-15849
X14255Y-15849
X14509Y-15849
X14763Y-15849
X15017Y-15849
X14509Y-11785
X14509Y-12039
X17811Y-13055
X17811Y-13309
X14509Y-11277
X14763Y-11277
X08413Y-12547
X08413Y-12801
X12985Y-13309
X13239Y-13309
X15779Y-11277
X16033Y-11277
X13747Y-16357
X13747Y-16611
X14001Y-16357
X14001Y-16611
X14255Y-16357
X14255Y-16611
X14509Y-16357
X14509Y-16611
X14763Y-16357
X14763Y-16611
X15017Y-16357
X15017Y-16611
X15271Y-16357
X15271Y-16611
X15525Y-16357
X15525Y-16611
X15779Y-16357
X15779Y-16611
X16033Y-16357
X16033Y-16611
X16287Y-16357
X16287Y-16611
X16541Y-16357
X16541Y-16611
X16795Y-16357
X16795Y-16611
X17049Y-13055
X17049Y-13309
X17049Y-13563
X17049Y-13817
X17049Y-14071
X17049Y-14325
X17049Y-14579
X17049Y-14833
X17049Y-15087
X17049Y-15341
X17049Y-15595
X17303Y-13055
X17303Y-13309
X17303Y-13563
X17303Y-13817
X17303Y-14071
X17303Y-14325
X17303Y-14579
X17303Y-14833
X17303Y-15087
X17303Y-15341
X17303Y-15595
T13
X06519Y-107895
X06519Y-114905
X06519Y-120895
X06519Y-127905
T14
X176Y-104
X064Y-104
X131Y-144
X176Y-171
X126Y-104
X064Y-171
T0
M30
